:SAMPLES-PER-SECOND 30
:FULLY-SPECIFIED
:DEGREES
201
root  9.38879 37.0526 -4.14388 176.91 -40.6859 154.354
RightUpLeg  -14.2141 19.8401 -30.1855
RightLeg  42.4942 8.22029 7.71585
RightFoot  -24.3874 1.42638 13.8698
RightToes  0.00048216 0.542163 -0.142577
Spine  10.6687 -5.8644 6.4678
Spine1  1.18979 -11.4184 25.6322
HEad  -33.5708 30.6888 -11.3524
LeftShoulder1  10.3636 -16.2488 -45.7452
LeftArm  -13.7486 15.0113 -15.1603
LeftForeArm  58.3299 -70.3325 -25.0381
LeftHand  -0.25398 0.0180481 5.50724
RightShoulder  6.3068 10.0778 40.2818
RightArm  -1.33047 34.5275 8.37601
RightForeArm  17.2308 43.7634 9.55192
RightHand  -0.916851 5.35416 -10.2701
LeftUpLeg  23.2705 41.293 2.2338
LeftLeg  32.1275 17.5339 11.8861
LeftFoot  -23.7894 -0.373778 -4.73591
LeftToes  1.06241e-005 4.65855e-005 -8.18508e-006
202
root  9.34178 37.2406 -3.66891 178.536 -38.2643 154.522
RightUpLeg  -17.0908 16.9248 -32.296
RightLeg  40.4901 9.82308 8.62103
RightFoot  -24.483 1.5474 14.8094
RightToes  0.00048216 0.542163 -0.142577
Spine  13.0111 -5.77349 8.60569
Spine1  0.0231029 -10.6671 26.1144
HEad  -33.1362 27.8298 -9.18915
LeftShoulder1  9.89672 -16.4349 -43.1567
LeftArm  -19.7249 12.3036 -12.9511
LeftForeArm  81.4713 -78.5285 -49.1272
LeftHand  -0.25398 0.0180481 5.50724
RightShoulder  6.09789 9.86109 39.5124
RightArm  -2.85468 38.4947 6.93611
RightForeArm  16.5217 41.6894 8.88907
RightHand  -0.997578 5.29927 -11.1812
LeftUpLeg  21.7965 44.4385 0.732445
LeftLeg  29.8644 16.843 10.5525
LeftFoot  -23.7561 -0.364055 -4.65635
LeftToes  1.06241e-005 4.65855e-005 -8.18508e-006
203
root  9.38249 37.4137 -3.20414 -179.931 -36.6021 155.007
RightUpLeg  -19.4573 12.9878 -33.4928
RightLeg  38.496 10.4974 8.59413
RightFoot  -24.4661 1.62325 15.4777
RightToes  0.00048216 0.542163 -0.142577
Spine  15.4281 -5.7847 11.0485
Spine1  -0.696502 -9.74508 25.466
HEad  -32.6575 24.5609 -7.10585
LeftShoulder1  9.41696 -16.5324 -40.6984
LeftArm  -26.6454 8.41256 -12.2112
LeftForeArm  145.087 -80.4558 -113.817
LeftHand  -0.25398 0.0180481 5.50724
RightShoulder  5.79688 9.47189 38.6058
RightArm  -7.14378 41.0804 5.99489
RightForeArm  15.6677 40.5126 8.56295
RightHand  -1.09065 5.07458 -12.4292
LeftUpLeg  19.6694 47.0138 -0.784408
LeftLeg  28.0913 15.8607 9.3393
LeftFoot  -23.7134 -0.345214 -4.49566
LeftToes  1.06241e-005 4.65855e-005 -8.18508e-006
204
root  9.48492 37.5801 -2.74386 -178.667 -34.9431 155.868
RightUpLeg  -21.5629 8.93382 -33.7718
RightLeg  36.2508 10.3619 7.82784
RightFoot  -24.1191 1.628 15.9175
RightToes  0.00048216 0.542163 -0.142577
Spine  18.4048 -5.97686 13.6299
Spine1  -0.995528 -8.80364 24.2914
HEad  -32.2599 21.914 -5.97963
LeftShoulder1  9.07366 -16.6098 -38.9067
LeftArm  -32.726 4.52428 -12.2953
LeftForeArm  -178.073 -71.7947 -152.384
LeftHand  -0.25398 0.0180481 5.50724
RightShoulder  5.53984 9.2218 37.5081
RightArm  -11.171 43.0768 5.43538
RightForeArm  15.0037 40.3363 8.55138
RightHand  -1.15512 4.91217 -13.3242
LeftUpLeg  16.4826 48.9155 -2.9635
LeftLeg  26.8854 15.2896 8.61683
LeftFoot  -23.4659 -0.270253 -3.86795
LeftToes  1.06241e-005 4.65855e-005 -8.18508e-006
205
root  9.64108 37.7366 -2.3117 -177.691 -33.0093 157.088
RightUpLeg  -23.4868 5.35035 -33.138
RightLeg  33.6689 10.0175 6.87981
RightFoot  -23.6638 1.6067 16.2797
RightToes  0.00048216 0.542163 -0.142577
Spine  22.0658 -6.27525 15.6511
Spine1  -0.868 -7.96427 23.3212
HEad  -31.9882 20.3677 -5.91391
LeftShoulder1  8.81388 -16.6409 -37.6005
LeftArm  -36.0741 1.17874 -13.5707
LeftForeArm  -167.722 -60.6257 -164.493
LeftHand  -0.25398 0.0180481 5.50724
RightShoulder  5.33946 9.16107 36.1754
RightArm  -12.4797 45.0666 4.73031
RightForeArm  14.1667 40.6442 8.70475
RightHand  -1.28425 5.34674 -14.1926
LeftUpLeg  12.3471 50.0812 -5.72416
LeftLeg  26.1374 15.0013 8.22109
LeftFoot  -23.2432 -0.184013 -3.10446
LeftToes  1.06241e-005 4.65855e-005 -8.18508e-006
206
root  9.85343 37.888 -1.93634 -176.984 -31.1509 158.514
RightUpLeg  -24.9499 1.98236 -31.7247
RightLeg  30.9149 9.54884 5.90265
RightFoot  -23.4493 1.61691 16.646
RightToes  0.00048216 0.542163 -0.142577
Spine  26.1708 -6.78668 16.6257
Spine1  -0.316374 -7.53351 22.7298
HEad  -31.7865 19.6736 -6.24119
LeftShoulder1  8.58204 -16.5819 -36.6083
LeftArm  -34.4466 -1.85402 -16.7404
LeftForeArm  -163.743 -50.5138 -169.652
LeftHand  -0.25398 0.0180481 5.50724
RightShoulder  5.18295 9.2224 34.7703
RightArm  -10.859 47.025 4.1054
RightForeArm  13.6878 41.1638 8.90567
RightHand  -1.44244 6.13291 -14.859
LeftUpLeg  8.158 50.5901 -8.25751
LeftLeg  25.5882 14.5297 7.80512
LeftFoot  -23.2971 -0.141967 -2.69128
LeftToes  1.06241e-005 4.65855e-005 -8.18508e-006
207
root  10.1142 38.0411 -1.63797 -176.334 -29.7958 159.924
RightUpLeg  -25.8868 -1.79641 -29.8188
RightLeg  28.0601 8.72616 4.7989
RightFoot  -22.8672 1.58133 17.0991
RightToes  0.00048216 0.542163 -0.142577
Spine  30.1402 -7.57602 16.7306
Spine1  0.797013 -7.68611 22.0554
HEad  -31.475 19.1045 -6.14458
LeftShoulder1  8.4952 -16.6629 -36.022
LeftArm  -26.1722 -4.52207 -21.9656
LeftForeArm  -161.268 -44.497 -171.81
LeftHand  -0.25398 0.0180481 5.50724
RightShoulder  5.06311 9.26849 33.6955
RightArm  -8.2086 48.2401 4.13057
RightForeArm  14.1907 42.4104 9.29333
RightHand  -1.49206 6.54288 -14.8494
LeftUpLeg  4.26264 50.4524 -10.3289
LeftLeg  25.1629 14.0007 7.40295
LeftFoot  -23.289 -0.123041 -2.51231
LeftToes  1.06241e-005 4.65855e-005 -8.18508e-006
208
root  10.4205 38.1644 -1.43671 -175.417 -28.9049 161.206
RightUpLeg  -26.7698 -5.77296 -27.6353
RightLeg  25.0453 8.27826 3.98253
RightFoot  -20.9134 1.37077 17.9676
RightToes  0.00048216 0.542163 -0.142577
Spine  33.5602 -8.2646 16.2347
Spine1  2.4911 -8.0449 21.0277
HEad  -31.0503 18.2628 -5.3429
LeftShoulder1  8.66559 -17.1444 -35.8625
LeftArm  -14.0679 -5.81584 -28.5601
LeftForeArm  -158.967 -45.2651 -171.671
LeftHand  -0.25398 0.0180481 5.50724
RightShoulder  4.96609 9.15971 33.2735
RightArm  -6.46549 47.9642 4.66611
RightForeArm  14.702 44.3877 9.96046
RightHand  -1.5015 6.61657 -14.8549
LeftUpLeg  0.0687535 49.809 -12.2682
LeftLeg  25.2992 13.8527 7.38426
LeftFoot  -22.6092 -0.0686076 -2.06519
LeftToes  1.06241e-005 4.65855e-005 -8.18508e-006
209
root  10.7868 38.2103 -1.33945 -174.167 -28.2877 162.446
RightUpLeg  -28.0028 -8.65935 -25.2604
RightLeg  22.0393 9.21007 3.86719
RightFoot  -17.8259 0.984648 19.3929
RightToes  0.00048216 0.542163 -0.142577
Spine  36.4962 -8.42309 15.1188
Spine1  4.30449 -8.14778 20.0238
HEad  -30.6846 17.4639 -4.05225
LeftShoulder1  8.99449 -17.7566 -36.1862
LeftArm  -4.91756 -5.71155 -34.9992
LeftForeArm  -158.584 -53.0509 -168.862
LeftHand  -0.25398 0.0180481 5.50724
RightShoulder  4.92492 9.01965 33.3828
RightArm  -5.68435 46.0363 5.47314
RightForeArm  13.8355 46.0281 10.643
RightHand  -1.68974 6.99034 -16.1472
LeftUpLeg  -4.82813 48.8119 -14.0792
LeftLeg  26.4918 14.2323 7.94195
LeftFoot  -21.2747 0.0248633 -1.17632
LeftToes  1.06241e-005 4.65855e-005 -8.18508e-006
210
root  11.2136 38.1944 -1.31959 -172.792 -28.2408 163.761
RightUpLeg  -29.4399 -9.53267 -22.9414
RightLeg  19.584 10.7024 4.00135
RightFoot  -14.9029 0.546228 20.5652
RightToes  0.00048216 0.542163 -0.142577
Spine  39.1528 -8.22802 13.6481
Spine1  5.58384 -8.06685 19.3717
HEad  -30.3357 16.8439 -2.35229
LeftShoulder1  9.3195 -18.0279 -37.1337
LeftArm  -1.62197 -5.9126 -40.2012
LeftForeArm  -164.293 -65.6512 -160.638
LeftHand  -0.25398 0.0180481 5.50724
RightShoulder  4.97168 9.02136 33.748
RightArm  -5.12881 42.7842 6.93271
RightForeArm  12.182 46.4252 10.9237
RightHand  -2.06188 7.83601 -18.3778
LeftUpLeg  -9.86601 47.325 -15.3769
LeftLeg  28.388 14.8023 8.8621
LeftFoot  -19.953 0.106092 -0.184893
LeftToes  1.06241e-005 4.65855e-005 -8.18508e-006
211
root  11.6715 38.1858 -1.3413 -171.401 -29.3907 165.022
RightUpLeg  -30.7319 -9.19012 -21.0865
RightLeg  18.15 11.0174 3.81089
RightFoot  -13.1372 0.23512 20.4789
RightToes  0.00048216 0.542163 -0.142577
Spine  41.4913 -8.2554 12.4288
Spine1  6.21108 -8.26127 19.0503
HEad  -29.9049 15.9542 -0.209053
LeftShoulder1  9.66446 -17.9415 -38.8497
LeftArm  -2.66424 -7.62666 -43.5092
LeftForeArm  168.217 -78.6732 -130.785
LeftHand  -0.25398 0.0180481 5.50724
RightShoulder  5.11742 9.22609 34.249
RightArm  -5.08529 38.5751 9.14941
RightForeArm  10.7606 45.8573 10.8005
RightHand  -2.42003 8.69982 -20.1899
LeftUpLeg  -14.1637 44.8429 -15.9895
LeftLeg  30.0653 15.2854 9.71771
LeftFoot  -19.0518 0.149619 0.519433
LeftToes  1.06241e-005 4.65855e-005 -8.18508e-006
